<svg width="141" height="29" viewBox="0 0 141 29" fill="none" xmlns="http://www.w3.org/2000/svg">
<g clip-path="url(#clip0_401_2791)">
<path d="M17.5711 6.14286H14.7225V3.87645C14.7225 1.73488 12.9381 0 10.7367 0C10.1132 0 9.52552 0.145431 9 0.397683C8.4758 0.145431 7.88675 0 7.26327 0C5.06192 0 3.27754 1.73488 3.27754 3.87645V6.139L0.428887 6.13771C0.195911 6.139 0 6.3269 0 6.5547V24.5843C0 24.8147 0.19194 25.0013 0.428887 25.0013H15.8344C16.9821 25.0013 18.0013 24.1763 18.0013 23.0116V6.55856C18 6.32947 17.8081 6.14286 17.5711 6.14286ZM10.7367 0.833977C12.4655 0.833977 13.866 2.19691 13.866 3.87645V6.14286L11.1934 6.14157V3.82239C11.1934 2.6834 10.6745 1.66023 9.85777 0.960103C10.1371 0.879022 10.4309 0.833977 10.7367 0.833977ZM9 1.35907C9.80615 1.89833 10.3356 2.80051 10.3356 3.82239V6.14157L7.66304 6.14028V3.82239C7.66304 2.80051 8.19385 1.89833 9 1.35907ZM4.13399 3.87645C4.13399 2.19562 5.53449 0.83269 7.26327 0.83269C7.56905 0.83269 7.86292 0.877735 8.1409 0.958816C7.32549 1.66023 6.80659 2.68211 6.80659 3.82239V6.14028L4.13399 6.139V3.87645ZM0.856449 6.97169L13.8144 6.97683V23.0116C13.8144 23.444 13.9626 23.8417 14.2089 24.1686H0.856449V6.97169ZM17.1422 23.0103C17.1422 24.5135 14.6708 24.5135 14.6708 23.0103V6.97683H17.1422V23.0103Z" fill="#0C0C0C"/>
<path d="M2.61572 21.3514V9.78766H6.91783L6.44526 11.0064H4.19228V14.8031H6.05079V15.9936H4.19228V21.3514H2.61572Z" fill="#0C0C0C"/>
<path d="M7.24609 21.3514V20.435L10.3582 11.0064H7.5201L7.99267 9.78766H12.1068V10.704L8.96296 20.1918H11.9943V21.3514H7.24609Z" fill="#0C0C0C"/>
</g>
<path d="M24.1328 25V6.41406H34.5049V8.97852H27.1543V13.6123H34.5049V16.2656H27.1543V25H24.1328ZM48.8887 25H46.1338V23.4385C45.6429 24.1325 45.0674 24.6488 44.4072 24.9873C43.7555 25.3258 43.0065 25.4951 42.1602 25.4951C40.459 25.4951 39.1175 24.9154 38.1357 23.7559C37.1624 22.5879 36.6758 20.9925 36.6758 18.9697C36.6758 17.0485 37.1751 15.4997 38.1738 14.3232C39.1725 13.1383 40.4759 12.5459 42.084 12.5459C43.0658 12.5459 43.9036 12.7533 44.5977 13.168C45.3001 13.5742 45.8122 14.1624 46.1338 14.9326V12.9648H48.8887V25ZM46.21 18.9443C46.21 17.7002 45.918 16.7311 45.334 16.0371C44.7585 15.3431 43.9502 14.9961 42.9092 14.9961C41.8682 14.9961 41.0472 15.3558 40.4463 16.0752C39.8538 16.7861 39.5576 17.7764 39.5576 19.0459C39.5576 20.3239 39.8454 21.3099 40.4209 22.0039C40.9964 22.6979 41.8089 23.0449 42.8584 23.0449C43.8486 23.0449 44.6527 22.6683 45.2705 21.915C45.8968 21.1618 46.21 20.1715 46.21 18.9443ZM51.3135 22.8164L53.5986 21.5723C53.7679 22.1732 54.0811 22.6302 54.5381 22.9434C54.9951 23.2565 55.5833 23.4131 56.3027 23.4131C56.9206 23.4131 57.403 23.2734 57.75 22.9941C58.1055 22.7064 58.2832 22.3171 58.2832 21.8262C58.2832 21.1745 57.6569 20.6159 56.4043 20.1504C55.9811 19.998 55.6553 19.8711 55.4268 19.7695C54.1403 19.2363 53.2389 18.6947 52.7227 18.1445C52.2148 17.5944 51.9609 16.9258 51.9609 16.1387C51.9609 15.0638 52.3799 14.1921 53.2178 13.5234C54.0641 12.8548 55.1813 12.5205 56.5693 12.5205C57.5003 12.5205 58.2959 12.694 58.9561 13.041C59.6247 13.3796 60.1113 13.8662 60.416 14.501L58.4609 15.8467C58.3171 15.4658 58.0632 15.1654 57.6992 14.9453C57.3438 14.7168 56.929 14.6025 56.4551 14.6025C55.9303 14.6025 55.5072 14.7295 55.1855 14.9834C54.8724 15.2288 54.7158 15.5589 54.7158 15.9736C54.7158 16.5999 55.4268 17.1712 56.8486 17.6875C57.2972 17.8483 57.6442 17.9795 57.8896 18.0811C58.9984 18.5212 59.7897 19.0205 60.2637 19.5791C60.7461 20.1292 60.9873 20.819 60.9873 21.6484C60.9873 22.8503 60.5514 23.7939 59.6797 24.4795C58.8079 25.1566 57.6061 25.4951 56.0742 25.4951C54.8978 25.4951 53.9202 25.2751 53.1416 24.835C52.363 24.3949 51.7536 23.722 51.3135 22.8164ZM63.7676 25V5.32227H66.3574V14.9326C66.9076 14.1032 67.555 13.498 68.2998 13.1172C69.0446 12.7363 69.9502 12.5459 71.0166 12.5459C71.9137 12.5459 72.6755 12.6898 73.3018 12.9775C73.9365 13.2568 74.4316 13.6758 74.7871 14.2344C74.9987 14.5645 75.151 14.9495 75.2441 15.3896C75.3372 15.8298 75.3838 16.5999 75.3838 17.7002V25H72.6035V18.8174C72.6035 17.2347 72.4089 16.1852 72.0195 15.6689C71.6387 15.1442 70.9574 14.8818 69.9756 14.8818C69.3324 14.8818 68.7568 15.0003 68.249 15.2373C67.7497 15.4743 67.3561 15.8086 67.0684 16.2402C66.8652 16.528 66.7214 16.9004 66.6367 17.3574C66.5605 17.806 66.5225 18.5254 66.5225 19.5156V25H63.7676ZM79.1797 25V5.32227H81.9346V25H79.1797ZM85.6416 7.75977C85.6416 7.29427 85.8109 6.89225 86.1494 6.55371C86.4964 6.21517 86.9069 6.0459 87.3809 6.0459C87.8717 6.0459 88.278 6.21094 88.5996 6.54102C88.9297 6.86263 89.0947 7.26888 89.0947 7.75977C89.0947 8.25065 88.9297 8.66536 88.5996 9.00391C88.2695 9.33398 87.8633 9.49902 87.3809 9.49902C86.9069 9.49902 86.4964 9.32975 86.1494 8.99121C85.8109 8.64421 85.6416 8.23372 85.6416 7.75977ZM86.0098 25V12.9648H88.7646V25H86.0098ZM102.171 19.0205C102.171 17.9033 101.811 16.9596 101.092 16.1895C100.372 15.4108 99.4922 15.0215 98.4512 15.0215C97.4186 15.0215 96.5384 15.4108 95.8105 16.1895C95.0911 16.9596 94.7314 17.9033 94.7314 19.0205C94.7314 20.1377 95.0911 21.0856 95.8105 21.8643C96.5384 22.6344 97.4186 23.0195 98.4512 23.0195C99.4837 23.0195 100.36 22.6344 101.079 21.8643C101.807 21.0856 102.171 20.1377 102.171 19.0205ZM91.8242 18.9951C91.8242 18.1149 91.9893 17.2855 92.3193 16.5068C92.6579 15.7197 93.1403 15.0215 93.7666 14.4121C94.3844 13.8112 95.0954 13.3499 95.8994 13.0283C96.7035 12.7067 97.5456 12.5459 98.4258 12.5459C99.3314 12.5459 100.182 12.7067 100.978 13.0283C101.782 13.3499 102.501 13.8239 103.136 14.4502C103.771 15.068 104.253 15.7663 104.583 16.5449C104.913 17.3236 105.078 18.1403 105.078 18.9951C105.078 19.8838 104.913 20.7174 104.583 21.4961C104.261 22.2747 103.787 22.9645 103.161 23.5654C102.501 24.2002 101.769 24.6784 100.965 25C100.161 25.3301 99.3145 25.4951 98.4258 25.4951C97.554 25.4951 96.7161 25.3301 95.9121 25C95.1081 24.6784 94.3929 24.2087 93.7666 23.5908C93.1318 22.9645 92.6494 22.262 92.3193 21.4834C91.9893 20.7048 91.8242 19.8753 91.8242 18.9951ZM106.411 25L117.456 7.9502H108.023V6.41406H120.338L109.344 23.4385H119.221V25H106.411ZM123.474 19.4902C123.474 20.946 123.799 22.0674 124.451 22.8545C125.111 23.6416 126.051 24.0352 127.27 24.0352C128.454 24.0352 129.385 23.6077 130.062 22.7529C130.748 21.8896 131.091 20.7048 131.091 19.1982C131.091 17.8187 130.752 16.7354 130.075 15.9482C129.398 15.1527 128.471 14.7549 127.295 14.7549C126.118 14.7549 125.188 15.1781 124.502 16.0244C123.816 16.8623 123.474 18.0176 123.474 19.4902ZM131.065 25V22.9434C130.693 23.7728 130.168 24.4076 129.491 24.8477C128.823 25.2793 128.031 25.4951 127.117 25.4951C125.501 25.4951 124.197 24.9408 123.207 23.832C122.225 22.7233 121.734 21.2591 121.734 19.4395C121.734 17.6367 122.221 16.1683 123.194 15.0342C124.168 13.8916 125.424 13.3203 126.965 13.3203C127.921 13.3203 128.746 13.5319 129.44 13.9551C130.143 14.3698 130.685 14.9834 131.065 15.7959V13.7393H132.627V25H131.065ZM136.524 9.34668C136.524 9.0166 136.643 8.7373 136.88 8.50879C137.117 8.27181 137.4 8.15332 137.73 8.15332C138.061 8.15332 138.344 8.27181 138.581 8.50879C138.826 8.7373 138.949 9.0166 138.949 9.34668C138.949 9.68522 138.831 9.96875 138.594 10.1973C138.365 10.4258 138.077 10.54 137.73 10.54C137.392 10.54 137.104 10.4258 136.867 10.1973C136.639 9.96875 136.524 9.68522 136.524 9.34668ZM136.918 25V13.7393H138.53V25H136.918Z" fill="#0C0C0C"/>
<defs>
<clipPath id="clip0_401_2791">
<rect width="18" height="25" fill="white"/>
</clipPath>
</defs>
</svg>
